/* XPM */
static char *d91fa55b07594351e3ce5e9aa520f2ac2IZPJBda7KS8QbSH[] = {
/* columns rows colors chars-per-pixel */
"20 20 9 1 ",
"  c None",
". c #1692D0",
"X c #1792D0",
"o c #1693D0",
"O c #1793D0",
"+ c #1692D1",
"@ c #1792D1",
"# c #1693D1",
"$ c #1793D1",
/* pixels */
"                    ",
"         XX         ",
"         #X         ",
"         XX#        ",
"        $$XX        ",
"        X#X$        ",
"        ##$$#       ",
"       X###X#       ",
"      X$##$$$X      ",
"      X$@#$$$X      ",
"     X$$@@@#$$X     ",
"     #$$@#X#$##     ",
"    $X#$$  #$$$X    ",
"    #$#$    X###@   ",
"   #X#$$    XX$$@   ",
"  $@XXX$    XX$$#   ",
"  #@@@@$    $$$$XX  ",
" X##@          $XX# ",
" XX              X# ",
"                    "
};
